# xmcd
#
# Track frame offsets:
#	150
#	10410
#	23091
#	38642
#	50483
#	65656
#	78668
#	91510
#	95656
#	111525
#	121784
#	132623
#	147761
#	172095
#	177466
#	201069
#	214665
#	224202
#
# Disc length: 3513 seconds
#
# Revision: 2
# Processed by: cddbd v1.5.2PL0 Copyright (c) Steve Scherf et al.
# Submitted via: audiograbber 1.83.01
#
DISCID=100db712
DTITLE=FL Folk - Music from the Florida Folklife Collection
DYEAR=1900
DGENRE=
TTITLE0=Mary McClain - Give A Poor Dog A Bone
TTITLE1=Williams Singers - Somewhere to Lay My Head
TTITLE2=Don Grooms - I Believe
TTITLE3=Thelma Boltin, Tom Walton - Butter Beans
TTITLE4=Ann Yao - Lotus
TTITLE5=Doc and Merle Watson - Cuckoo Bird
TTITLE6=Etta Baker - One Dime Blues
TTITLE7=Pham Duy - Vietnamese Folk Sopng
TTITLE8=Beers Family - The Water Is Wide
TTITLE9=Amy Cox, Bob Murphy - Kimballs' Rachel
TTITLE10=Stanley Bros - We Are Going to Paint the Town
TTITLE11=Johnny Shines - Kind Hearted Woman
TTITLE12=Jeanie Fitchen - Cruel Mother
TTITLE13=Jim Bob TInsley - Back in the Saddle Again
TTITLE14=James Kelly - Wellington's Reel
TTITLE15=Jean Ritchie - Nottamun Town
TTITLE16=Richard Williams - I Prayed Until I Found the Lord
TTITLE17=Billl Monroe and BluegrassBoys - Wayfaring Stranger
EXTD=
EXTT0=
EXTT1=
EXTT2=
EXTT3=
EXTT4=
EXTT5=
EXTT6=
EXTT7=
EXTT8=
EXTT9=
EXTT10=
EXTT11=
EXTT12=
EXTT13=
EXTT14=
EXTT15=
EXTT16=
EXTT17=
PLAYORDER=
